<svg id="Layer_1" data-name="Layer 1" xmlns="http://www.w3.org/2000/svg" viewBox="0 0 425.29 370.67"><defs><style>.cls-1{fill:#1a3a2b;}.cls-2{fill:#af6f35;}</style></defs><path class="cls-1" d="M254.27,457.93c-38-15.06-59.41-43.49-66.11-83.25-1.37-8.17-1-16.77-.51-25.11,1.39-21.37,9.73-40.17,23.44-56.38,18.27-21.61,41.46-35,69.63-39.19,30.19-4.46,57.45,3.15,81.67,21.29,20.85,15.61,34.17,36.4,40.09,61.84.15.67.37,1.32.56,2l.07,0,1.21,7.72c0,1.77-.05,3.55.09,5.31a101.9,101.9,0,0,1-12.15,57.45c-11.45,21.12-28,36.95-50.23,46.71-3.72,1.63-6.52.86-9.72-.54-12.95-5.64-22.6-14.16-25.95-28.61-3.77-16.27,6.5-32.44,23-34.64,10.18-1.36,19.61.61,25,11a11,11,0,0,0,2.32,3c1.71,1.55,3.39,3.34,6.23,2.84.27-6-2.65-10.59-6.79-15.12a28.65,28.65,0,0,1,13.9,1.39,43.59,43.59,0,0,0,9.76,1.84c1.22.1,2.56-1.1,3.85-1.71-.72-1.22-1.17-2.76-2.2-3.59-4-3.28-8.8-4.05-13.92-3.89-5.6.17-11.22-.09-16.83-.28-1.05,0-2.09-.6-3.82-1.15,1.35-.66,1.93-1,2.54-1.25,6.55-2.74,13.12-5.42,19.65-8.23,2.36-1,4.54-2.38,5.25-5.09a3.19,3.19,0,0,0-.43-.57,3.64,3.64,0,0,0-.75-.47c-5.84-2.56-11.21-1.22-15.68,2.78-6.46,5.76-13.75,7.48-22.2,6.66-11.92-1.16-22.14,2.86-30.59,11.37-.8.81-1.7,1.54-3.19,2.88-.42-4.66-.61-8.52.74-12.24,3.78-10.37,9.9-18.89,19.76-24.34a7.67,7.67,0,0,0,1.74-.2c11-3.75,21.74-2.79,32.23,2.07a53.42,53.42,0,0,0,5.29,1.86l1.68.39.25,0c5.4.19,10.89,1.07,16.15.31,3.65-.52,7.06-3.14,10.38-5.15.95-.58,1.93-2.61,1.58-3.42s-2.18-1.62-3.45-1.79c-4.47-.59-9-.35-13,1.79a21.39,21.39,0,0,1-12.35,2.4L348,351c4.82-2.2,9.48-3.48,13.95-5.24a11.4,11.4,0,0,1,9.41,0A22.58,22.58,0,0,0,386.15,347c2.68-.66,3.31-2.23,1.16-3.84a49.78,49.78,0,0,0-9.21-5.05,23.7,23.7,0,0,0-5-1.14l-.66-1a16.16,16.16,0,0,0,3.34-2.4,45.52,45.52,0,0,0,5.75-7.79c1.27-2.4.1-3.59-2.58-3-4.24.95-8.1,3.17-9.86,7-3.15,6.87-8.88,9.6-15.47,11.51a56.34,56.34,0,0,1-6.45,2,81.05,81.05,0,0,1-8.28.58l-.26-1.06c8.28-3.31,12.44-9.57,13.79-18.45-1.26.23-2,.32-2.75.53A26.27,26.27,0,0,0,335,335c-2.36,3.31-5.79,3.94-9.84,4.72,1.1-4.13,1.79-7.94,3.14-11.51,3.79-10,13.11-15.53,23.82-14.52a34.14,34.14,0,0,0,5.63.1c5-.33,9.48-1.95,12.92-5.78,1.78-2,1.39-3.38-1.25-3.51a86.21,86.21,0,0,0-12.34.36c-2.73.25-5.37,1.41-8.1,1.72-7.57.85-13.61,4.46-18.78,9.8-1.7,1.76-3.33,3.6-5.42,5.87-.77-6.41-2.07-12.18,3.05-17a18,18,0,0,0,4.19-5.7,103.49,103.49,0,0,0,3.95-12c.23-.77-.44-1.81-.69-2.72-.93.42-2.17.59-2.72,1.3-1.75,2.25-3.24,4.7-4.83,7.08l-5.12,7.63-1.07-.31c0-1.58,0-3.16,0-4.73,0-5.11.19-10.24-.14-15.33-.1-1.59-1.62-3.09-2.49-4.63-1.06,1.35-2.47,2.55-3.12,4.07a32.27,32.27,0,0,0-1.09,23.44c.38,1.14.49,3.12-.18,3.74-3.79,3.48-7.85,6.67-12.28,10.34-.82-3.24-1.32-5.73-2.07-8.15a24.1,24.1,0,0,1,.07-16.18,25.91,25.91,0,0,0-.95-20.5c-.76-1.59-2.27-2.83-3.43-4.23-1.13,1.41-2.64,2.67-3.33,4.27A29,29,0,0,0,291.9,294a17.88,17.88,0,0,1,.65,10.45c-1.07,4.13-2.14,8.26-3.38,13-3.58-2.89-6.42-5.32-9.41-7.55s-3.75-4.51-2.54-8.14c2.51-7.54,1.58-15-1.65-22.22a26,26,0,0,0-2.88-4.14l-1.09.14c-.69,2-1.86,3.94-2,5.94-.2,4.52.16,9.06.26,13.58,0,1.69,0,3.39,0,5.08l-.87.31c-1-1.4-2-2.79-2.9-4.22-2-3.14-4-6.38-6.17-9.4-.71-1-2.21-1.33-3.34-2-.27,1.19-1,2.51-.72,3.54a51,51,0,0,0,3.57,9.92c1.69,3.21,4.11,6,6.22,9a14.61,14.61,0,0,1,.92,14.56c-1.35-1.53-2.66-3-3.95-4.48-4-4.6-8.63-8.08-14.66-9.53-4.33-1-8.56-2.59-12.93-3.21a62.22,62.22,0,0,0-12.36-.21c-2.59.15-3.07,1.66-1.21,3.52a18.69,18.69,0,0,0,4.8,3.36c4.57,2.27,9.49,2.53,14.49,2.16,4.32-.32,8.46.15,12.26,2.54,8.69,5.46,12.05,13.89,13.56,23.81-4.16-1.25-7.95-2.24-10.52-5.87-4.14-5.84-10-8.84-17.38-9.67,1.48,3.92,2.83,8,5.3,11.12s6,5.29,9.56,8.31c-1.71,0-3.12.29-4.35-.05C242.79,342,236.32,340.13,230,338c-1.78-.61-3.34-2.3-4.62-3.82-2.29-2.69-4-5.87-6.48-8.39a11.26,11.26,0,0,0-8.9-3.5c-.15,4.21,1.9,7,4.34,9.68,1.64,1.78,3.25,3.58,4.88,5.37-1.72.17-3.6,0-5.14.6a46.15,46.15,0,0,0-9.36,4.79c-2.43,1.73-1.9,3.53.95,4.32a21.91,21.91,0,0,0,17.39-2.35c1.92.16,3.94,0,5.72.52,4.49,1.43,8.87,3.21,13.29,4.84-.17.4-.22,1-.52,1.18-7.82,4.48-15.7,7.86-24.8,3.13a20.72,20.72,0,0,0-13-1.67c-1.24.2-2.36,1.13-3.54,1.72a14.51,14.51,0,0,0,2,3.13,20.77,20.77,0,0,0,13,5.68c9.88.84,19.22-.82,27.86-5.87l1.52-.23,2.26-.52L251,356l7,0a34.38,34.38,0,0,1,26.45,14.56c4.54,7.47,7.62,15.33,6.2,24.64-1.48-.91-2.29-2.31-3.4-3.4-5-4.9-10.66-9.08-17.66-10.29a67.31,67.31,0,0,0-15.6-.73c-6.79.44-12.72-.91-17.82-5.53a41.48,41.48,0,0,0-4.05-3c-3.4-2.39-7.25-2.4-11.11-1.79a3.76,3.76,0,0,0-2.48,1.72c-.23.49.62,1.86,1.32,2.37a37.93,37.93,0,0,0,6.25,3.9c4.73,2.22,9.59,4.18,14.37,6.29,1.38.61,2.68,1.4,4,2.1l-.1.88a33.77,33.77,0,0,1-5.66,1c-5.53.05-11.05-.13-16.58-.22-4.38-.08-8.47.88-11.88,3.74-.89.74-2,2.35-1.77,3a4.65,4.65,0,0,0,3.09,2.15A16.54,16.54,0,0,0,222,395.78a18.77,18.77,0,0,1,13.47-1.29c-4.15,4.46-7.08,9.09-7.58,16,2.4-1.14,4.38-1.7,5.87-2.88A12.91,12.91,0,0,0,237.4,403c2.47-5.42,6.79-8.28,12.3-9.74,10.35-2.76,19.86-1.42,27.87,6.11s10.52,17.42,8.33,27.92c-1.25,6-4.55,11.48-8.87,16.19C270.72,450.37,262.76,454.54,254.27,457.93Zm-15-154.53c3.71.14,5.88-1.77,6-5.3a6.55,6.55,0,0,0-6.26-6.84c-3.81-.17-6,1.66-6.16,5.12C232.62,300.74,234.89,303.23,239.24,303.4Zm120.16-6.12c.05-3.92-1.93-6-5.64-6a6.24,6.24,0,0,0-6.58,6.16c-.11,3.78,2.17,6.13,6,6.18S359.35,301.28,359.4,297.28Z" transform="translate(-82.65 -236.32)"/><path class="cls-2" d="M321.92,358.36c-9.86,5.45-16,14-19.76,24.34-1.35,3.72-1.16,7.58-.74,12.24,1.49-1.34,2.39-2.07,3.19-2.88,8.45-8.51,18.67-12.53,30.59-11.37,8.45.82,15.74-.9,22.2-6.66,4.47-4,9.84-5.34,15.68-2.78a3.64,3.64,0,0,1,.75.47,3.19,3.19,0,0,1,.43.57c-.71,2.71-2.89,4.07-5.25,5.09-6.53,2.81-13.1,5.49-19.65,8.23-.61.26-1.19.59-2.54,1.25,1.73.55,2.77,1.12,3.82,1.15,5.61.19,11.23.45,16.83.28,5.12-.16,9.88.61,13.92,3.89,1,.83,1.48,2.37,2.2,3.59-1.29.61-2.63,1.81-3.85,1.71a43.59,43.59,0,0,1-9.76-1.84,28.65,28.65,0,0,0-13.9-1.39c4.14,4.53,7.06,9.09,6.79,15.12-2.84.5-4.52-1.29-6.23-2.84a11,11,0,0,1-2.32-3c-5.37-10.41-14.8-12.38-25-11-16.48,2.2-26.75,18.37-23,34.64,3.35,14.45,13,23,25.95,28.61,3.2,1.4,6,2.17,9.72.54,22.22-9.76,38.78-25.59,50.23-46.71a101.9,101.9,0,0,0,12.15-57.45c-.14-1.76-.07-3.54-.09-5.31q-.61-3.85-1.21-7.72l-.07,0a14.76,14.76,0,0,1,3.42.35c2.58.86,5,2.13,7.64,2.86,1.14.32,2.54-.27,4.39-.52,1,6.32,3.15,13.15,1.43,20.4a27.77,27.77,0,0,0-.29,5,104.62,104.62,0,0,1-7.58,33.48,109.13,109.13,0,0,1-13.43,24.57c-11,14.91-24.22,27.2-41.18,35.1a5.74,5.74,0,0,0-1,.62c-.14.11-.2.32-.48.79a11.88,11.88,0,0,0,2.11.63c23.8,2.32,47.4,1.92,70.41-5.61a111.16,111.16,0,0,0,34-18.34l0,0c-2.6,4.95-4.76,10.18-7.87,14.78-8.78,12.94-21.09,21.7-35,28.45-14.19,6.87-29.17,10.15-44.87,11-21.14,1.12-41.63-1.68-61.25-9.72a135.71,135.71,0,0,1-16.28-8.44c-2.35-1.37-3.85-1.5-6.29,0-5.64,3.55-11.6,6.63-17.52,9.71-16.09,8.38-33.55,11.54-51.39,12.67-15.56,1-30.45-2.48-44.67-8.8-17.34-7.7-31.45-19.25-41.5-35.46-2.52-4.09-4.5-8.51-6.74-12.77l.57-.5a11.66,11.66,0,0,1,1.65,1.21c14,14.46,31.87,20.48,51.1,23.28a174.07,174.07,0,0,0,44.34.72c3.22-.35,6.4-.9,10.45-1.48-30.22-15.79-49.7-39.74-59.7-71.15s-6.93-62,8.45-91.49c23.76-45.57,76.31-66.81,105-63.86,1,4.63.28,5.45-4.42,5.88a117.62,117.62,0,0,0-47.82,15.46c-28.77,16.4-47.87,40.59-57,72.39-6.54,22.69-4.86,45.2,3,67.3a113,113,0,0,0,38.16,52.86,172.17,172.17,0,0,0,16,10.49,6.86,6.86,0,0,0,4.71.29c3.63-.9,7.17-2.19,10.74-3.33,8.49-3.39,16.45-7.56,22.76-14.44,4.32-4.71,7.62-10.19,8.87-16.19,2.19-10.5-.2-20.29-8.33-27.92s-17.52-8.87-27.87-6.11c-5.51,1.46-9.83,4.32-12.3,9.74a12.91,12.91,0,0,1-3.68,4.56c-1.49,1.18-3.47,1.74-5.87,2.88.5-6.87,3.43-11.5,7.58-16A18.77,18.77,0,0,0,222,395.78a16.54,16.54,0,0,1-10.36,1.58,4.65,4.65,0,0,1-3.09-2.15c-.27-.65.88-2.26,1.77-3,3.41-2.86,7.5-3.82,11.88-3.74,5.53.09,11.05.27,16.58.22a33.77,33.77,0,0,0,5.66-1l.1-.88c-1.34-.7-2.64-1.49-4-2.1-4.78-2.11-9.64-4.07-14.37-6.29a37.93,37.93,0,0,1-6.25-3.9c-.7-.51-1.55-1.88-1.32-2.37a3.76,3.76,0,0,1,2.48-1.72c3.86-.61,7.71-.6,11.11,1.79a41.48,41.48,0,0,1,4.05,3c5.1,4.62,11,6,17.82,5.53a67.31,67.31,0,0,1,15.6.73c7,1.21,12.64,5.39,17.66,10.29,1.11,1.09,1.92,2.49,3.4,3.4,1.42-9.31-1.66-17.17-6.2-24.64l-2.79-6c1.64-.64,3.4-1.48,5.25-2,2.51-.73,5.11-1.19,7.65-1.85s5.25-1.86,7.93-2.11c3.76-.35,7.57,0,11.36,0C316.54,358.55,319.23,358.43,321.92,358.36Zm-43.5,104.88a28.06,28.06,0,0,0-3,1.15c-11.24,5.87-23.27,9.32-35.69,11.52a123.86,123.86,0,0,1-31,1.12,158.34,158.34,0,0,1-38.33-7.21c-2.14-.71-4.25-1.51-6.37-2.27l-.06-.12.09.1c1.3,1.19,2.53,2.47,3.91,3.57,14.6,11.59,31.37,18.13,49.69,20.59,12.17,1.64,23.44-2,34.24-7.3,10.38-5.11,19.5-11.83,26.71-21l.19-.18c0-.05-.12-.15-.15-.14A.62.62,0,0,0,278.42,463.24Z" transform="translate(-82.65 -236.32)"/><path class="cls-1" d="M84,514.51c3.82,0,7.1.18,10.34-.06,3.48-.25,5.25,1.06,6.47,4.43,3.26,9,6.94,17.85,10.47,26.76.36.92.77,1.81,1.41,3.28,1.63-4,3.06-7.61,4.51-11.18,2.78-6.87,5.59-13.72,8.31-20.62a3.74,3.74,0,0,1,4.22-2.75c3.53.2,7.08,0,10.61,0,.89,2.08.5,3.19-1.68,3.48-2.86.37-4,2.06-3.8,5q1,16.71,1.85,33.45a3.13,3.13,0,0,0,2.7,3.3c.79.2,1.36,1.2,2,1.83-.82.43-1.64,1.2-2.48,1.23-5.14.14-10.28.18-15.42.08-.79,0-1.55-1-2.33-1.5.67-.64,1.28-1.75,2-1.84,3.09-.35,4.13-1.92,4.08-5-.14-8.49,0-17,0-25.48l-1-.13c-1.79,4.27-3.61,8.54-5.38,12.82-2.67,6.49-5.24,13-8,19.46a3,3,0,0,1-2.28,1.65A3.71,3.71,0,0,1,108,561c-2.2-5.07-4.2-10.23-6.22-15.38C99.51,539.8,97.29,534,95,528.21c-.14.07-.4.15-.41.22-.25,8.7-.44,17.39-.74,26.08-.1,2.83,1,4.41,3.84,5,.86.19,1.5,1.32,2.24,2-.84.42-1.68,1.18-2.53,1.2q-6.37.15-12.75-.08c-.69,0-1.36-.92-2-1.42.56-.63,1.09-1.78,1.69-1.82,3.14-.17,3.54-2.31,3.69-4.68.62-9.77,1.32-19.53,1.78-29.3.31-6.41.15-6.42-6.09-8.22Z" transform="translate(-82.65 -236.32)"/><path class="cls-1" d="M387.37,540.9c.56,1.78.66,3.12-1.46,3.12s-2.43,1.23-2.44,2.89c0,3.46.11,6.93-.19,10.37a4.64,4.64,0,0,1-2,3.38,34.61,34.61,0,0,1-23.16,2c-9.65-2.56-15.3-10.57-15.87-22.15-.79-16,9.9-26.89,24.27-27.41,4.59-.16,9.22.65,13.83,1,2.08.17,2.77,1.31,2.7,3.38-.11,3.36.14,6.72,0,10.08,0,.76-1.07,2.14-1.51,2.09a7.89,7.89,0,0,1-2.91-1.51c-.18-.12-.17-.55-.21-.85-.56-3.58-1.2-7.05-5.29-8.51-4.6-1.64-9.08-1.78-13.41.76-3.92,2.31-6,5.9-6.9,10.25-1.61,7.88-.83,15.36,3.88,22.1,3.89,5.58,9.57,7,15.94,6.29a2.59,2.59,0,0,0,1.57-1.88c.21-2.46,0-4.94.15-7.41.15-3-1.16-4.44-4.15-4.4-.4,0-.91.1-1.16-.11a18,18,0,0,1-1.79-1.81c.61-.58,1.21-1.65,1.82-1.66C375.15,540.85,381.26,540.9,387.37,540.9Z" transform="translate(-82.65 -236.32)"/><path class="cls-1" d="M325,544.32c.12,13.68-11.09,22.37-22.78,18a15.51,15.51,0,0,1-6.47-4.86c-5.5-7.12-4.55-18.75,1.38-25.51,4.8-5.47,10.79-5.8,17-4.18,6.91,1.81,9.64,7.33,10.67,13.91A22.84,22.84,0,0,1,325,544.32Zm-9.29,4,.46-.22c-1.23-4.63-2.16-9.37-3.87-13.82-.57-1.48-3.15-3.06-4.78-3s-3.39,1.86-4.75,3.24a4.94,4.94,0,0,0-1,3.33,98.38,98.38,0,0,0,.84,12.63,12.39,12.39,0,0,0,3,6.3,7.11,7.11,0,0,0,5.42,1.86c1.39-.2,3-2.11,3.62-3.63C315.4,553,315.34,550.61,315.66,548.37Z" transform="translate(-82.65 -236.32)"/><path class="cls-1" d="M174.86,544.93c-.21,14.36-11.72,20.65-22,17.59a13.07,13.07,0,0,1-9-8.36c-1.77-4.82-2.68-9.59-1.12-14.87a17.15,17.15,0,0,1,17.14-12.35c7.94.25,12.94,4.73,14.4,13C174.57,541.58,174.67,543.26,174.86,544.93Zm-24-2.24c1.21,4.08,2.37,8.83,4.07,13.38.91,2.43,3.37,3.19,6,2.77a4.71,4.71,0,0,0,4.05-4.17c1.22-7.17.61-14.22-2.67-20.74a6.13,6.13,0,0,0-4.69-2.73,6.24,6.24,0,0,0-4.5,3C151.9,536.42,151.7,539.2,150.86,542.69Z" transform="translate(-82.65 -236.32)"/><path class="cls-1" d="M232.8,544.65c-.77,10.26-6.56,17.26-15.85,18.61a14.06,14.06,0,0,1-15.07-8.06c-3.43-8-3.59-16.22,2.34-22.85,7.12-8,20.32-7.71,25.46,2C231.33,537.44,231.8,541.19,232.8,544.65ZM223,549.29l.57-.22c-1.25-4.94-2.34-9.92-3.81-14.79-.68-2.26-2.71-3.34-5.14-3.27a4.44,4.44,0,0,0-4.37,3.4,27.47,27.47,0,0,0,2.54,22c.78,1.38,3.56,2.42,5.25,2.23,1.51-.17,3.27-2,4.05-3.58S222.76,551.23,223,549.29Z" transform="translate(-82.65 -236.32)"/><path class="cls-1" d="M413,545.86c-.47-14.9,12.73-22,23.41-17.56a13.53,13.53,0,0,1,6.22,5.48,22.29,22.29,0,0,1,2.15,16.85c-2,7.77-9.49,13.24-17.13,12.65-8.26-.64-13.56-6.08-14.47-14.87C413.05,547.34,413,546.25,413,545.86Zm23.81,2.62c-1-4.19-2.14-9.18-3.56-14.08a4.42,4.42,0,0,0-4.74-3.31c-2.48.14-4.55,1.22-5.23,3.68a26.79,26.79,0,0,0,3.11,21.92c2.29,3.71,7.37,2.89,8.93-1.21C436,553.59,436.18,551.47,436.79,548.48Z" transform="translate(-82.65 -236.32)"/><path class="cls-1" d="M507.11,555.45c-.46,1-.65,2.35-1.41,3.08-4.32,4.14-9.32,6.23-15.38,4.4-5.75-1.75-8.56-6-9.75-11.61-1.91-9,1.79-18.65,8.52-22.34,9.12-5,18.21,0,18.82,10.33.21,3.52-.91,5-4.45,5.26-4.72.37-9.45.53-14.14.79C488.2,555.92,495,559.75,507.11,555.45Zm-18.57-14.32c2.77,0,5.11,0,7.45,0,3.48-.1,3.65-.33,3.22-3.87-.08-.59-.22-1.16-.33-1.75-.4-2.24-1.36-3.87-3.94-4a4.65,4.65,0,0,0-5.06,3.27A45.9,45.9,0,0,0,488.54,541.13Z" transform="translate(-82.65 -236.32)"/><path class="cls-1" d="M462.32,528.1c-1.22,1.34-1.7,2.33-2.42,2.56-1.87.6-2.18,1.66-1.67,3.37,1.76,5.91,3.47,11.84,5.2,17.76l.75,0c1.95-5.75,4-11.48,5.82-17.26.64-2,.25-3.7-2.38-4.11-.7-.11-1.27-1.05-1.89-1.61l.49-.69H481a19.17,19.17,0,0,1-1.53,2.55c-1.29,1.51-3.22,2.73-3.92,4.46-3.28,8.16-6.43,16.39-9.19,24.74-.95,2.84-2.69,2.52-4.71,2.73s-3.17-.5-3.83-2.61c-2.13-6.78-4.43-13.51-6.78-20.21a37.93,37.93,0,0,0-2.95-6.33c-.58-1-1.79-1.64-2.6-2.55a4.07,4.07,0,0,1-.94-1.89c0-.24.76-.9,1.18-.9C451,528.08,456.15,528.1,462.32,528.1Z" transform="translate(-82.65 -236.32)"/><path class="cls-1" d="M290.17,556a13.09,13.09,0,0,1-1.37,2.33c-8.17,8.77-21.16,5.88-24.73-5.48-4.21-13.37,4.37-25.89,17.71-25.82.4,0,.79,0,1.19,0,6.61.52,9.07,4.87,6.06,10.87a2.34,2.34,0,0,1-1.88.84,4.06,4.06,0,0,1-2.21-1c-.37-.31-.35-1.09-.51-1.66-.66-2.36-1.88-4.24-4.58-4.34s-5.08,1-6,3.53a21.75,21.75,0,0,0,1.93,19.61c1.86,3,5.33,3.44,9.66,2,1.37-.46,2.68-1.05,4-1.59Z" transform="translate(-82.65 -236.32)"/><path class="cls-1" d="M260.88,555.43a12.91,12.91,0,0,1-13.48,8c-6.2-.71-10.7-4.79-12-11.37-1.79-9-.34-17.09,8-22.39a16.4,16.4,0,0,1,15.44-1.45,3.59,3.59,0,0,1,2.29,4.32c-.28,1.54-.2,3.17-.59,4.68-.19.74-1.19,1.92-1.62,1.84a7.65,7.65,0,0,1-2.72-1.63c-.17-.12-.09-.56-.17-.85-.66-2.6-2.06-4.58-4.93-4.79a5.57,5.57,0,0,0-6,3.87c-2.1,6.45-1.82,12.91,1.63,18.86,2,3.43,6.23,4,10.9,2.1C258.64,556.14,259.77,555.81,260.88,555.43Z" transform="translate(-82.65 -236.32)"/><path class="cls-1" d="M400.11,534.4c1.06-1.73,1.54-3.3,2.61-4.08,1.72-1.27,3.76-2.61,5.79-2.86,3.34-.41,4.37,1.16,3.78,4.46-.34,1.92-.62,3.86-1,6.17-1.24-.25-2.36-.4-3.43-.7-3.65-1-5.83-.08-6.22,3.59-.55,5.17-.42,10.42-.52,15.63,0,2.06,1.46,2.47,3.14,2.83a7.55,7.55,0,0,1,2.3,1.51c-.85.5-1.7,1.41-2.57,1.43-4.76.13-9.53.09-14.3,0-.65,0-1.28-.8-1.92-1.22.54-.56,1-1.52,1.62-1.6,2.27-.32,2.92-1.68,2.92-3.7,0-6.22,0-12.44,0-18.65,0-2.28-.22-4.4-3.18-4.82-.47-.06-.84-.88-1.73-1.9l12.67-3.09Z" transform="translate(-82.65 -236.32)"/><path class="cls-1" d="M175,561.43c.78-.64,1.48-1.7,2.34-1.86,2.08-.38,2.74-1.41,2.71-3.43-.1-6.22,0-12.44-.12-18.66,0-2.35,0-4.84-3-5.77-.4-.13-.6-.91-1.23-1.92l11.94-2.38v7.18c1-1.65,1.31-2.82,2.09-3.5,1.59-1.36,3.25-3,5.16-3.55,4.37-1.23,5.71.24,5,4.66-.33,1.92-.59,3.84-.91,5.93-1.84-.42-3.35-.79-4.87-1.1-2.63-.53-4.46.64-4.69,3.17a143.31,143.31,0,0,0-.72,15.63c.07,3.09,2.89,3.56,5.79,3.72,0,1-.09,1.89-.14,2.81H175.75Z" transform="translate(-82.65 -236.32)"/><path class="cls-1" d="M208.45,577.46V606c-2.92,1-4.49-.15-6-2.41-4-6.06-8.21-12-12.82-18.64V606H185.4V577.5c3-.75,5,0,6.71,2.52,3.18,4.88,6.61,9.6,9.95,14.38.43.61.93,1.16,2,2.45V577.46Z" transform="translate(-82.65 -236.32)"/><path class="cls-1" d="M277.46,577.34h5c0,3,0,5.79,0,8.62.05,3.85,0,7.7.24,11.54.21,3.62,2.3,5.34,6.09,5.42,3.6.07,5.63-1.49,5.85-5.19.29-4.92.18-9.86.24-14.79,0-1.77,0-3.55,0-5.56h4.59c0,7.31.37,14.5-.13,21.64-.37,5.23-4.75,8-11.05,8-6,0-10.39-2.8-10.75-8C277.09,591.87,277.46,584.67,277.46,577.34Z" transform="translate(-82.65 -236.32)"/><path class="cls-1" d="M311.57,577.59c3-.15,6.08-.52,9.1-.41,5.05.2,8,2.64,8.5,6.59.6,4.76-1.24,7.42-6.57,9.28l8.11,12.61c-4.14,1.49-5.7.83-7.73-2.79a47.67,47.67,0,0,0-6.2-8.84V607l-5.23-1.75Q311.57,591.41,311.57,577.59Zm5.24,3c0,2.69-.08,5.41.06,8.12a2.22,2.22,0,0,0,1.42,1.46,4.22,4.22,0,0,0,5.31-3.68C324.16,582.3,321.54,580,316.81,580.64Z" transform="translate(-82.65 -236.32)"/><path class="cls-1" d="M356,598h-2.81c-6.9,0-6.93,0-9.5,6.43-1,2.58-2.58,2.93-5,1.28,1.71-5,3.34-10.17,5.19-15.23,1.41-3.83,3-7.61,4.71-11.31a3.36,3.36,0,0,1,2.49-1.71c1.14,0,2.95.68,3.27,1.51,3.4,8.88,6.56,17.85,9.81,26.86C359.08,606.77,358.45,607.73,356,598Zm-1.4-3.65-3.52-11.2c-1.32,4.17-2.39,7.54-3.54,11.2Z" transform="translate(-82.65 -236.32)"/><path class="cls-1" d="M244.16,606.1c-5.44.57-5.93.48-7-4.32-.71-3.18-2.15-4.08-5.24-3.91-7.47.41-5.7-1.15-8,5.85-1,3-2.73,2.8-5.42,2.28,2-5.72,4-11.32,6.07-16.9,1.25-3.44,2.43-6.9,3.88-10.25a3.28,3.28,0,0,1,2.52-1.59c1,0,2.67.66,3,1.45C237.43,587.71,240.72,596.79,244.16,606.1Zm-16.81-11.9h7.05c-1.19-3.57-2.32-7-3.69-11.08C229.48,587.2,228.46,590.54,227.35,594.2Z" transform="translate(-82.65 -236.32)"/><path class="cls-1" d="M398.73,599.48c.78.7,1.54,1.44,2.35,2.1,1.68,1.36,3.6,2.07,5.33.41a4,4,0,0,0,.28-5.88,28.48,28.48,0,0,0-5-4.06c-2.61-1.86-4.52-4.06-4.61-7.49s1.28-5.79,4.28-7.08a9.21,9.21,0,0,1,9.29.78c.52.36.51,1.91.25,2.76-.11.35-1.55.44-2.35.36-.64-.07-1.3-.92-1.84-.83-1.51.27-3.66.43-4.25,1.42s-.14,3.39.74,4.37c1.61,1.79,4,2.89,5.84,4.48A9.31,9.31,0,0,1,411.88,602c-2.24,5.06-9.65,6.08-14,3.37C396,604.16,396.32,601.93,398.73,599.48Z" transform="translate(-82.65 -236.32)"/><path class="cls-1" d="M268.76,580.61h-7.32v25.51H255.9V580.89h-7.55c-.08-1.26-.15-2.27-.23-3.51h20.64Z" transform="translate(-82.65 -236.32)"/><path class="cls-1" d="M372.64,577.46h5.58v25l10.87.55c.34,2.44-.37,3.94-3,3.85-4.1-.15-8.21-.38-12.31-.58a7.61,7.61,0,0,1-1.17-.24Z" transform="translate(-82.65 -236.32)"/><path class="cls-2" d="M242.06,350c.19-.05.42-.21.56-.15,2.93,1.3,5.85,2.63,8.64,3.9-1.54,1-3,1.89-4.47,2.8l-2.26.52-1.94-.86.42,1.09c-8.64,5.05-18,6.71-27.86,5.87a20.77,20.77,0,0,1-13-5.68,14.51,14.51,0,0,1-2-3.13c1.18-.59,2.3-1.52,3.54-1.72a20.72,20.72,0,0,1,13,1.67c9.1,4.73,17,1.35,24.8-3.13C241.84,351,241.89,350.41,242.06,350Z" transform="translate(-82.65 -236.32)"/><path class="cls-2" d="M361.18,362.09q.6-2.71,1.21-5.43a21.39,21.39,0,0,0,12.35-2.4c4-2.14,8.56-2.38,13-1.79,1.27.17,3.06.86,3.45,1.79s-.63,2.84-1.58,3.42c-3.32,2-6.73,4.63-10.38,5.15-5.26.76-10.75-.12-16.15-.31l2.15-.28-.13-.48-2.27.72Zm3.8-4.82.1.49.87-.32Z" transform="translate(-82.65 -236.32)"/><path class="cls-2" d="M219.21,337.29c.38-.35,1-.64,1.1-1,.35-1.76,1.27-3.52,3-2.4,1.31.85,1.77,3.09,2.44,4.78.12.3-.57.92-.94,1.49.46.41.81.74,1.17,1.05s.73.61,1.05.87l-4,2.62A22,22,0,0,1,205.66,347c-2.85-.79-3.38-2.59-.95-4.32a46.15,46.15,0,0,1,9.36-4.79C215.61,337.26,217.49,337.46,219.21,337.29Z" transform="translate(-82.65 -236.32)"/><path class="cls-1" d="M316.72,316.47c7.83,15.14-.13,28.37-14.83,34.52C297.44,340.62,303.89,325.45,316.72,316.47Z" transform="translate(-82.65 -236.32)"/><path class="cls-1" d="M274.93,316.89c12.88,6.89,17.53,18.62,15.69,34.81-6.46-3.69-12.55-7.32-15.95-14.05A21.21,21.21,0,0,1,274.93,316.89Z" transform="translate(-82.65 -236.32)"/></svg>